<?xml version="1.0" encoding="utf-8"?>
<!-- Generator: Adobe Illustrator 16.0.0, SVG Export Plug-In . SVG Version: 6.00 Build 0)  -->
<!DOCTYPE svg PUBLIC "-//W3C//DTD SVG 1.1//EN" "http://www.w3.org/Graphics/SVG/1.1/DTD/svg11.dtd">
<svg version="1.1" id="Layer_1" xmlns="http://www.w3.org/2000/svg" xmlns:xlink="http://www.w3.org/1999/xlink" x="0px" y="0px"
	 width="150px" height="50px" viewBox="0 0 150 50" enable-background="new 0 0 150 50" xml:space="preserve">
<path fill="#FFFFFF" d="M123.965,26.316c1.678-0.453,1.891-1.433,2.008-2.543c0.234-2.251,0.68-4.49,0.771-6.745
	c0.097-2.406,1.638-2.304,3.29-2.289c1.778,0.018,2.438,1.033,2.313,2.633c-0.152,1.955-0.406,3.903-0.637,5.851
	c-0.167,1.424-0.365,2.845-0.549,4.266c-0.223,1.737,0.02,3.27,2.086,3.625c1.564,0.271,3.35-1.255,3.592-3.112
	c0.42-3.217,0.75-6.447,1.051-9.679c0.237-2.585,2.623-4.254,5.084-3.534c1.172,0.343,0.967,1.209,0.879,2.005
	c-0.431,3.823-0.822,7.654-1.39,11.46c-0.206,1.391-0.126,2.173,1.388,2.754c2.285,0.875,3.396,2.872,3.971,5.184
	c0.285,1.154-0.063,2.369-1.055,2.625c-1.063,0.275-1-0.963-1.11-1.779c-0.056-0.409-0.292-0.86-0.584-1.159
	c-0.765-0.778-1.41-2.099-2.679-1.728c-1.064,0.311-0.896,1.654-0.99,2.563c-0.342,3.353-0.799,6.632-3.514,9.035
	c-2.146,1.896-4.668,2.019-7.222,1.176c-2.331-0.771-3.476-2.626-3.542-5.026c-0.057-2.049,0.904-3.791,2.159-5.346
	c0.707-0.871,0.938-1.377-0.445-1.835c-1.917-0.637-3.118-2.054-3.511-4.091c-0.077-0.398,0.011-1.063-0.664-0.902
	c-0.382,0.092-0.831,0.475-0.988,0.838c-0.633,1.477-0.654,3.086-0.857,4.656c-0.336,2.614-0.48,5.275-1.572,7.725
	c-0.829,1.861-2.146,3.229-4.15,3.914c-2.888,0.984-5.543,0.49-7.301-1.467c-1.607-1.791-1.719-4.531-0.254-7.207
	c0.53-0.969,1.137-1.897,1.706-2.845c-0.933-0.473-1.901-0.883-2.787-1.429c-3.416-2.105-4.655-7.191-2.925-11.819
	c1.949-5.212,6.275-7.891,12.15-7.28c1.644,0.171,3.184,0.281,4.847,0.011c2.661-0.431,3.016,0.14,2.603,2.791
	C124.697,20.422,124.373,23.25,123.965,26.316z M118.936,20.2c0.172-1.76-0.14-2.091-1.953-2.164
	c-2.172-0.087-3.777,0.875-4.871,2.7c-1.123,1.871-1.373,4.008-1.461,6.1c-0.101,2.35,1.343,4.155,3.123,4.4
	c1.688,0.229,3.494-1.223,4.209-3.413c0.162-0.499,0.295-1.021,0.351-1.54C118.553,24.257,118.736,22.228,118.936,20.2z
	 M117.109,36.671c-0.396-0.437,0.742-2.344-1.131-1.349c-1.791,0.951-3.268,2.484-3.927,4.521c-0.479,1.483-0.418,3.005,1.356,3.552
	c1.751,0.539,2.729-0.574,3.072-2.152C116.8,39.771,116.898,38.258,117.109,36.671z M135.885,36.38
	c0.02-1.31-0.275-1.494-1.548-0.836c-1.903,0.985-3.161,2.535-3.64,4.603c-0.325,1.404-0.092,2.764,1.566,3.242
	c1.725,0.498,2.557-0.602,2.883-2.024C135.516,39.766,135.641,38.113,135.885,36.38z"/>
<path fill="#3A97D6" d="M13.251,6.333c7.969,0.044,13.083,6.003,11.545,13.141c-0.363,1.683-1.593,2.682-2.56,3.892
	c-1.319,1.651-2.863,3.262-2.99,5.429c-0.101,1.723,0.7,3.406,0.69,5.229c-0.019,3.453-2.267,6.94-5.559,7.957
	c-0.489,0.15-1.045,0.252-1.542,0.182c-1.715-0.243-5.102-3.605-5.582-5.284c-0.696-2.431-1.401-4.765,0.3-7.161
	c0.299-0.422-0.332-1.688-0.779-2.412c-0.825-1.342-1.767-2.626-2.776-3.838C-0.85,17.644,1.358,9.714,8.579,7.272
	C10.141,6.743,11.735,6.207,13.251,6.333z M12.836,29.43c1.556-0.005,3.019,0.266,3.519-1.563c0.736-2.696,2.524-4.733,4.219-6.861
	c2.538-3.187,2.098-6.886-0.902-9.445c-1.493-1.273-3.27-1.84-5.123-2.229c-3.224-0.676-7.689,1.354-9.413,4.237
	c-1.617,2.708-1.063,5.423,1.756,8.588c1.111,1.247,1.893,2.643,2.52,4.222C10.018,27.904,10.441,30.1,12.836,29.43z"/>
<path fill="#FFFFFF" d="M103.025,15.437c-1.775-1.088-3.6-0.976-5.354,0.069c-0.765,0.455-1.203,0.617-2.088-0.114
	c-2.248-1.857-5.025-0.569-5.334,2.292c-0.225,2.104-0.575,4.201-0.656,6.31c-0.085,2.204-1.271,3.609-2.871,4.867
	c-2.15,1.691-4.508,2.854-7.299,2.418c-2.619-0.408-4.157-2.603-4.229-5.653c-0.081-3.427,1.767-6.906,4.016-7.515
	c0.991-0.269,1.987-0.243,2.775,0.493c0.91,0.851,0.697,1.996,0.393,2.977c-0.551,1.764-1.854,2.878-3.58,3.523
	c-0.758,0.283-1.355,0.701-1.002,1.689c0.331,0.924,1.035,1.021,1.834,0.854c2.333-0.487,4.516-1.389,6.209-3.076
	c3.354-3.338,2.188-8.054-2.314-9.446c-2.051-0.635-4.159-0.601-6.239,0.042c-5.457,1.688-9.364,7.581-7.396,13.576
	c0.229,0.696,0.848,1.575-0.332,2.144c-0.556,0.266-1.117,0.659-1.688,0.26c-0.75-0.523-0.923-1.386-0.812-2.233
	c0.345-2.62,0.762-5.229,1.123-7.847c0.428-3.103-1.045-5.474-4.009-6.147c-1.612-0.366-3.295-0.417-4.867,0.406
	c-1.059,0.555-1.9,1.042-3.158-0.151c-1.476-1.398-4.472-0.339-4.709,1.401c-0.381,2.798-0.426,5.64-1.225,8.344
	c-0.159,0.54-0.037,1.022-0.117,1.563c-0.141,0.961-1.458,2.111-2.246,2.635c-2.141,1.417-4.502,2.965-7.198,2.424
	c-2.125-0.43-3.69-1.991-4.009-4.143c-0.19-1.287-0.158-2.913,0.154-4.178c0.443-1.796,1.803-4.495,3.732-5.038
	c1.412-0.397,3.485,0.185,3.515,1.958c0.028,1.674-0.954,3.212-2.206,4.25c-0.762,0.63-2.51,1.085-2.21,2.334
	c0.411,1.707,3.906-0.035,4.704-0.348c1.678-0.66,3.337-1.866,4.236-3.465c0.507-0.901,0.688-2.036,0.557-3.062
	c-0.586-4.635-6.02-5.93-9.863-4.904c-4.001,1.067-7.278,4.243-8.196,8.315c-0.904,4.011,0.542,8.495,4.168,10.666
	c4.09,2.447,8.738,0.97,12.577-1.188c0.571-0.323,1.257-1.178,1.903-0.547c0.262,0.256,0.338,2.519,0.158,2.507
	c0.895,0.063,1.797,0.081,2.687,0.202c1.777,0.24,2.582-0.357,2.637-2.289c0.063-2.178,0.376-4.368,0.808-6.508
	c0.413-2.049,0.226-4.244,1.401-6.13c0.794-1.276,1.825-2.069,3.374-1.645c1.539,0.421,1.822,1.656,1.679,3.049
	c-0.255,2.476-0.509,4.953-0.808,7.425c-0.286,2.358,0.185,4.583,2.343,5.699c2.093,1.083,4.518,0.933,6.441-0.585
	c1.284-1.01,2.158-0.889,3.344,0.003c1.107,0.828,2.475,1.031,3.861,1.128c4.334,0.301,7.979-1.242,11.219-4.152
	c0.225,0.369,0.422,0.682,0.606,1c1.69,2.93,3.522,3.737,6.778,2.994c2.57-0.589,4.158-2.855,4.311-5.921
	c0.146-2.954-1.099-5.244-3.117-7.245c-0.511-0.504-1.254-0.981-0.801-1.91c0.439-0.899,1.234-1.317,2.172-1.441
	c0.948-0.126,1.338,0.581,1.602,1.31c0.652,1.806,1.834,1.299,2.863,0.56C104.879,19.086,104.721,16.475,103.025,15.437z
	 M97.842,28.451c-0.05,0.447-0.064,0.902-0.156,1.341c-0.195,0.933-0.81,1.501-1.748,1.397c-0.869-0.094-1.272-0.834-1.221-1.637
	c0.104-1.57,0.268-3.144,0.532-4.693c0.178-1.032,0.806-0.7,1.222-0.15C97.305,25.805,97.889,27.016,97.842,28.451z"/>
<path fill="#3A97D6" d="M14.34,13.087c1.667,0.472,3.394,0.858,3.938,2.881c0.123,0.455,0.121,0.961-0.326,1.212
	c-0.581,0.328-0.768-0.225-0.969-0.599c-0.621-1.155-1.555-1.795-2.879-1.858c-0.637-0.03-1.319-0.19-1.233-0.981
	C12.965,12.866,13.756,13.168,14.34,13.087z"/>
</svg>
