<?xml version="1.0" encoding="utf-8"?>
<!-- Generator: Adobe Illustrator 16.0.0, SVG Export Plug-In . SVG Version: 6.00 Build 0)  -->
<!DOCTYPE svg PUBLIC "-//W3C//DTD SVG 1.1//EN" "http://www.w3.org/Graphics/SVG/1.1/DTD/svg11.dtd">
<svg version="1.1" id="Layer_1" xmlns="http://www.w3.org/2000/svg" xmlns:xlink="http://www.w3.org/1999/xlink" x="0px" y="0px"
	 width="150px" height="50px" viewBox="0 0 150 50" enable-background="new 0 0 150 50" xml:space="preserve">
<g>
	<path fill-rule="evenodd" clip-rule="evenodd" fill="#3C3C3C" d="M123.965,26.316c1.677-0.453,1.891-1.432,2.008-2.543
		c0.234-2.251,0.68-4.49,0.771-6.745c0.097-2.406,1.638-2.304,3.29-2.289c1.779,0.018,2.438,1.033,2.314,2.633
		c-0.152,1.955-0.407,3.903-0.637,5.851c-0.167,1.424-0.366,2.845-0.549,4.266c-0.222,1.737,0.02,3.27,2.086,3.625
		c1.565,0.271,3.35-1.254,3.592-3.112c0.42-3.217,0.75-6.447,1.05-9.679c0.238-2.585,2.624-4.254,5.085-3.534
		c1.172,0.343,0.967,1.209,0.878,2.005c-0.43,3.823-0.822,7.654-1.389,11.46c-0.206,1.391-0.126,2.173,1.388,2.754
		c2.284,0.875,3.396,2.872,3.97,5.183c0.285,1.155-0.063,2.369-1.054,2.626c-1.064,0.275-1-0.964-1.111-1.78
		c-0.056-0.409-0.292-0.86-0.584-1.159c-0.765-0.779-1.41-2.098-2.679-1.727c-1.064,0.31-0.896,1.653-0.99,2.563
		c-0.342,3.352-0.799,6.631-3.514,9.035c-2.146,1.896-4.668,2.019-7.221,1.176c-2.331-0.771-3.476-2.626-3.542-5.026
		c-0.057-2.05,0.904-3.791,2.159-5.346c0.707-0.872,0.938-1.377-0.445-1.835c-1.917-0.637-3.118-2.054-3.511-4.091
		c-0.077-0.398,0.011-1.063-0.664-0.903c-0.382,0.092-0.831,0.475-0.988,0.838c-0.633,1.477-0.655,3.087-0.858,4.657
		c-0.335,2.614-0.48,5.275-1.572,7.725c-0.829,1.86-2.146,3.229-4.15,3.914c-2.888,0.984-5.543,0.49-7.301-1.467
		c-1.607-1.792-1.719-4.532-0.254-7.207c0.53-0.969,1.136-1.898,1.706-2.845c-0.932-0.473-1.901-0.883-2.787-1.429
		c-3.416-2.105-4.655-7.191-2.925-11.819c1.95-5.212,6.276-7.891,12.15-7.28c1.644,0.171,3.184,0.281,4.847,0.011
		c2.661-0.431,3.016,0.14,2.603,2.791C124.697,20.422,124.373,23.25,123.965,26.316z M118.935,20.2
		c0.172-1.76-0.139-2.091-1.953-2.164c-2.172-0.087-3.777,0.875-4.87,2.7c-1.124,1.871-1.374,4.008-1.462,6.1
		c-0.1,2.349,1.343,4.155,3.123,4.4c1.688,0.23,3.495-1.222,4.21-3.413c0.162-0.499,0.294-1.02,0.35-1.54
		C118.553,24.257,118.737,22.228,118.935,20.2z M117.109,36.671c-0.396-0.436,0.743-2.344-1.13-1.349
		c-1.791,0.952-3.268,2.484-3.927,4.521c-0.479,1.483-0.418,3.005,1.356,3.552c1.751,0.539,2.729-0.574,3.072-2.153
		C116.8,39.772,116.899,38.258,117.109,36.671z M135.885,36.38c0.019-1.309-0.276-1.494-1.548-0.836
		c-1.903,0.985-3.161,2.535-3.64,4.602c-0.325,1.405-0.092,2.764,1.566,3.243c1.726,0.497,2.557-0.602,2.883-2.025
		C135.515,39.766,135.64,38.113,135.885,36.38z"/>
	<path fill-rule="evenodd" clip-rule="evenodd" fill="#1464A7" d="M13.251,6.333c7.969,0.044,13.083,6.003,11.545,13.141
		c-0.363,1.683-1.593,2.682-2.56,3.892c-1.319,1.651-2.863,3.262-2.99,5.429c-0.101,1.722,0.7,3.406,0.69,5.229
		c-0.019,3.452-2.267,6.94-5.559,7.956c-0.489,0.151-1.045,0.252-1.542,0.182c-1.715-0.243-5.102-3.605-5.582-5.284
		c-0.696-2.431-1.401-4.765,0.3-7.161c0.299-0.422-0.332-1.687-0.779-2.413c-0.825-1.341-1.767-2.626-2.776-3.837
		C-0.85,17.644,1.358,9.714,8.579,7.272C10.141,6.743,11.735,6.207,13.251,6.333z M12.836,29.429
		c1.556-0.004,3.019,0.267,3.519-1.563c0.736-2.696,2.524-4.733,4.219-6.861c2.538-3.187,2.098-6.886-0.902-9.445
		c-1.493-1.273-3.27-1.84-5.123-2.229c-3.224-0.676-7.689,1.354-9.413,4.237c-1.617,2.708-1.063,5.423,1.756,8.588
		c1.111,1.247,1.893,2.643,2.52,4.222C10.018,27.905,10.441,30.1,12.836,29.429z"/>
	<path fill-rule="evenodd" clip-rule="evenodd" fill="#3C3C3C" d="M103.026,15.437c-1.776-1.088-3.6-0.976-5.354,0.069
		c-0.765,0.455-1.203,0.617-2.088-0.114c-2.248-1.857-5.026-0.569-5.334,2.292c-0.225,2.104-0.575,4.201-0.656,6.31
		c-0.085,2.204-1.272,3.609-2.871,4.867c-2.151,1.692-4.508,2.854-7.299,2.419c-2.62-0.409-4.157-2.603-4.229-5.654
		c-0.081-3.427,1.767-6.906,4.016-7.515c0.991-0.269,1.987-0.243,2.775,0.493c0.911,0.851,0.697,1.996,0.393,2.977
		c-0.551,1.764-1.854,2.878-3.58,3.523c-0.758,0.283-1.355,0.7-1.002,1.689c0.331,0.924,1.035,1.022,1.834,0.854
		c2.333-0.488,4.515-1.389,6.209-3.076c3.353-3.338,2.188-8.054-2.314-9.446c-2.051-0.635-4.16-0.601-6.24,0.042
		c-5.457,1.688-9.364,7.581-7.396,13.576c0.229,0.697,0.848,1.575-0.332,2.144c-0.556,0.266-1.117,0.659-1.688,0.26
		c-0.75-0.524-0.923-1.386-0.812-2.234c0.345-2.62,0.762-5.229,1.123-7.847c0.428-3.103-1.045-5.474-4.009-6.147
		c-1.612-0.366-3.295-0.417-4.867,0.406c-1.059,0.555-1.9,1.042-3.158-0.151c-1.476-1.398-4.472-0.339-4.709,1.401
		c-0.381,2.798-0.426,5.64-1.225,8.344c-0.159,0.54-0.037,1.023-0.117,1.563c-0.141,0.962-1.458,2.112-2.246,2.635
		c-2.141,1.417-4.502,2.965-7.198,2.424c-2.125-0.429-3.69-1.991-4.009-4.142c-0.19-1.287-0.158-2.913,0.154-4.179
		c0.443-1.796,1.803-4.495,3.732-5.038c1.412-0.397,3.485,0.185,3.515,1.958c0.028,1.674-0.954,3.212-2.206,4.25
		c-0.762,0.63-2.51,1.085-2.21,2.334c0.411,1.707,3.906-0.034,4.704-0.347c1.678-0.66,3.337-1.866,4.236-3.465
		c0.507-0.901,0.688-2.036,0.557-3.062c-0.586-4.635-6.02-5.93-9.863-4.904c-4.001,1.067-7.278,4.243-8.196,8.315
		c-0.904,4.01,0.542,8.495,4.168,10.666c4.09,2.447,8.738,0.97,12.577-1.189c0.571-0.323,1.257-1.177,1.903-0.547
		c0.262,0.256,0.338,2.519,0.158,2.507c0.895,0.064,1.797,0.081,2.687,0.202c1.777,0.24,2.582-0.357,2.637-2.289
		c0.063-2.177,0.376-4.368,0.808-6.507c0.413-2.05,0.226-4.244,1.401-6.131c0.794-1.276,1.825-2.069,3.374-1.645
		c1.539,0.421,1.822,1.656,1.679,3.049c-0.255,2.476-0.509,4.953-0.808,7.425c-0.286,2.358,0.185,4.583,2.343,5.699
		c2.093,1.083,4.518,0.932,6.441-0.585c1.284-1.01,2.158-0.888,3.344,0.003c1.107,0.828,2.475,1.031,3.861,1.128
		c4.334,0.301,7.978-1.242,11.219-4.153c0.224,0.369,0.422,0.682,0.606,1.001c1.691,2.929,3.523,3.737,6.778,2.994
		c2.57-0.589,4.158-2.856,4.311-5.921c0.146-2.955-1.099-5.244-3.118-7.245c-0.51-0.504-1.254-0.981-0.8-1.91
		c0.439-0.899,1.234-1.317,2.171-1.441c0.949-0.126,1.338,0.581,1.602,1.31c0.652,1.806,1.834,1.299,2.864,0.56
		C104.879,19.086,104.721,16.475,103.026,15.437z M97.842,28.451c-0.05,0.448-0.065,0.902-0.156,1.341
		c-0.196,0.933-0.81,1.501-1.748,1.398c-0.87-0.095-1.273-0.835-1.221-1.637c0.103-1.57,0.267-3.144,0.532-4.693
		c0.178-1.032,0.805-0.7,1.221-0.15C97.304,25.805,97.889,27.015,97.842,28.451z"/>
	<path fill-rule="evenodd" clip-rule="evenodd" fill="#1464A7" d="M14.34,13.087c1.667,0.472,3.394,0.858,3.938,2.881
		c0.123,0.455,0.121,0.961-0.326,1.212c-0.581,0.328-0.768-0.225-0.969-0.599c-0.621-1.155-1.555-1.795-2.879-1.858
		c-0.637-0.03-1.319-0.19-1.233-0.981C12.965,12.866,13.756,13.168,14.34,13.087z"/>
</g>
</svg>
